<?xml version="1.0" encoding="UTF-8" standalone="no"?>
<!DOCTYPE svg PUBLIC "-//W3C//DTD SVG 1.1//EN" "http://www.w3.org/Graphics/SVG/1.1/DTD/svg11.dtd">
<svg width="100%" height="100%" viewBox="0 0 1080 1080" version="1.1" xmlns="http://www.w3.org/2000/svg" xmlns:xlink="http://www.w3.org/1999/xlink" xml:space="preserve" xmlns:serif="http://www.serif.com/" style="fill-rule:evenodd;clip-rule:evenodd;stroke-linejoin:round;stroke-miterlimit:2;">
    <g transform="matrix(12.4576,0,0,12.4576,-82.3045,-84.1523)">
        <path d="M80.602,44.801C87.903,46.403 93.301,52.903 93.301,60.602C93.301,69.5 86,76.801 77.102,76.801L27.505,76.801C16.005,76.801 6.607,67.403 6.607,55.903C6.607,44.403 16.005,35.005 27.505,35.005C28.806,35.005 30.106,35.107 31.403,35.403C35.802,28.005 43.704,23.403 52.403,23.403C60.802,23.403 68.301,27.704 72.704,34.301C73.005,34.7 72.903,35.301 72.505,35.7L71.306,36.899C70.806,37.399 69.907,37.297 69.607,36.7C65.907,31.001 59.607,27.301 52.408,27.301C44.708,27.301 37.709,31.602 34.107,38.5L33.407,39.899L32.001,39.399C30.501,39 29.001,38.797 27.603,38.797C18.204,38.797 10.603,46.399 10.603,55.797C10.603,65.196 18.204,72.797 27.603,72.797L77.2,72.797C84.598,72.797 90.501,66.196 89.302,58.496C88.302,52.496 82.904,48.297 76.904,48.297C76.404,48.297 76.103,47.696 76.506,47.297L78.404,45.399C78.9,44.801 79.802,44.602 80.603,44.801L80.602,44.801ZM87,32.399C87.899,31.501 87.899,30.001 87,29.001C86.102,28.102 84.602,28.102 83.602,29.001L50.5,62.2L36.102,47.802C35.204,46.903 33.704,46.903 32.704,47.802C31.805,48.7 31.805,50.2 32.704,51.2L48.806,67.302C49.606,68.103 50.907,68.2 51.907,67.603C52.009,67.501 52.208,67.404 52.306,67.302L87,32.399Z" style="fill-rule:nonzero;"/>
    </g>
</svg>
