<?xml version="1.0" encoding="UTF-8" standalone="no"?>
<!DOCTYPE svg PUBLIC "-//W3C//DTD SVG 1.1//EN" "http://www.w3.org/Graphics/SVG/1.1/DTD/svg11.dtd">
<svg width="100%" height="100%" viewBox="0 0 1080 1080" version="1.1" xmlns="http://www.w3.org/2000/svg" xmlns:xlink="http://www.w3.org/1999/xlink" xml:space="preserve" xmlns:serif="http://www.serif.com/" style="fill-rule:evenodd;clip-rule:evenodd;stroke-linejoin:round;stroke-miterlimit:2;">
    <g id="vault" transform="matrix(11.6554,0,0,11.6554,-6354.56,-5225.78)">
        <g transform="matrix(1,0,0,1,541.534,444.687)">
            <path d="M81.25,4.688L18.75,4.688C12.719,4.688 7.812,9.594 7.812,15.626L7.812,78.126C7.812,83.079 11.109,87.266 15.624,88.61L15.624,90.625C15.624,93.203 17.734,95.313 20.312,95.313L29.687,95.313C32.265,95.313 34.375,93.203 34.375,90.625L34.375,89.063L65.625,89.063L65.625,90.625C65.625,93.203 67.734,95.313 70.312,95.313L79.687,95.313C82.265,95.313 84.375,93.203 84.375,90.625L84.375,88.61C88.89,87.266 92.187,83.078 92.187,78.126L92.187,15.626C92.187,9.594 87.281,4.688 81.249,4.688L81.25,4.688ZM89.063,54.688L79.688,54.688C78.828,54.688 78.125,53.984 78.125,53.125L78.125,40.625C78.125,39.766 78.828,39.063 79.688,39.063L89.063,39.063L89.063,54.688ZM89.063,35.938L82.813,35.938L82.813,18.75C82.813,16.171 80.703,14.062 78.125,14.062L21.875,14.062C19.297,14.062 17.188,16.171 17.188,18.75L17.188,23.437C15.469,23.437 14.063,24.843 14.063,26.562L14.063,32.812C14.063,34.531 15.469,35.937 17.188,35.937L17.188,57.812C15.469,57.812 14.063,59.218 14.063,60.937L14.063,67.187C14.063,68.906 15.469,70.312 17.188,70.312L17.188,75C17.188,77.578 19.297,79.687 21.875,79.687L78.125,79.687C80.703,79.687 82.813,77.578 82.813,75L82.813,57.811L89.063,57.811L89.063,78.123C89.063,82.436 85.563,85.936 81.25,85.936L18.75,85.936C14.438,85.936 10.938,82.436 10.938,78.123L10.938,15.623C10.938,11.311 14.438,7.811 18.75,7.811L81.25,7.811C85.563,7.811 89.063,11.311 89.063,15.623L89.063,35.938ZM38.563,39.219C37.234,40.953 36.328,43.031 36.031,45.313L29.75,45.313C30.078,41.313 31.672,37.656 34.125,34.766L38.563,39.203L38.563,39.219ZM36.328,32.563C39.219,30.109 42.875,28.516 46.875,28.188L46.875,34.469C44.594,34.766 42.516,35.672 40.781,37L36.344,32.562L36.328,32.563ZM36.031,48.438C36.328,50.719 37.234,52.797 38.562,54.531L34.125,58.969C31.672,56.078 30.078,52.422 29.75,48.422L36.031,48.422L36.031,48.438ZM40.781,56.75C42.516,58.078 44.594,58.984 46.875,59.281L46.875,65.562C42.875,65.234 39.219,63.64 36.328,61.187L40.766,56.75L40.781,56.75ZM41.812,53.5C40.109,51.813 39.062,49.469 39.062,46.875C39.062,44.281 40.109,41.938 41.812,40.25C43.5,38.547 45.844,37.5 48.437,37.5C51.031,37.5 53.375,38.547 55.062,40.25C56.766,41.938 57.812,44.281 57.812,46.875C57.812,49.469 56.766,51.813 55.062,53.5C53.375,55.203 51.031,56.25 48.437,56.25C45.844,56.25 43.5,55.203 41.812,53.5ZM50,34.469L50,28.188C54,28.516 57.656,30.11 60.547,32.563L56.109,37C54.375,35.672 52.297,34.766 50.016,34.469L50,34.469ZM50,59.281C52.281,58.984 54.359,58.078 56.094,56.75L60.531,61.187C57.641,63.64 53.984,65.234 49.984,65.562L49.984,59.281L50,59.281ZM58.312,54.531C59.641,52.797 60.547,50.719 60.844,48.437L67.125,48.437C66.797,52.437 65.203,56.093 62.75,58.984L58.312,54.547L58.312,54.531ZM60.844,45.312C60.547,43.031 59.641,40.953 58.312,39.218L62.75,34.781C65.203,37.672 66.797,41.328 67.125,45.328L60.844,45.328L60.844,45.312ZM17.188,32.812L17.188,26.562L20.313,26.562L20.313,32.812L17.188,32.812ZM20.313,60.937L20.313,67.187L17.188,67.187L17.188,60.937L20.313,60.937Z" style="fill-rule:nonzero;"/>
        </g>
        <g transform="matrix(1,0,0,1,541.534,444.687)">
            <path d="M53.125,46.875C53.125,53.125 43.75,53.125 43.75,46.875C43.75,40.625 53.125,40.625 53.125,46.875" style="fill-rule:nonzero;"/>
        </g>
    </g>
</svg>
